<?xml version="1.0" encoding="iso-8859-1"?>
<!-- Generator: Adobe Illustrator 19.0.0, SVG Export Plug-In . SVG Version: 6.00 Build 0)  -->
<svg version="1.1" id="Layer_1" xmlns="http://www.w3.org/2000/svg" xmlns:xlink="http://www.w3.org/1999/xlink" x="0px" y="0px"
	 viewBox="0 0 512.001 512.001" style="enable-background:new 0 0 512.001 512.001;" xml:space="preserve">
<path style="fill:#900000;" d="M214.705,235.064l-41.827,181.935h85.108c61.649,0,111.625-49.976,111.625-111.625V193.237
	L214.705,235.064z"/>
<path style="fill:#ffffff;" d="M369.973,124.711c0,0,99.279-21.63,132.51,74.209H354.114L369.973,124.711z"/>
<path style="fill:#900000;" d="M309.857,35.139H291.16c-55.109,0-99.784,44.674-99.784,99.784v99.717h126.909
	c49.881,0,90.317-40.437,90.317-90.317v-10.438C408.603,79.348,364.393,35.139,309.857,35.139z"/>
<path style="fill:#db0000;" d="M231.129,214.552h-6.256c-21.319,0-41.634,9.058-55.881,24.918L9.518,416.999h156.886
	c73.777,0,133.585-59.809,133.585-133.585l0,0C299.989,245.383,269.16,214.552,231.129,214.552z"/>
<g>
	<circle style="fill:#ffffff;" cx="337.875" cy="139.554" r="16.649"/>
	<path style="fill:#ffffff;" d="M511.475,200.56c-9.547-27.535-25.184-48.65-46.474-62.757
		c-14.105-9.345-30.426-15.464-48.599-18.245c-9.046-50.621-53.362-89.179-106.545-89.179H291.16
		c-60.269,0-109.301,49.032-109.301,109.301v81.889c-7.372,4.349-14.122,9.813-19.948,16.299L2.437,415.398
		c-2.51,2.794-3.142,6.804-1.612,10.236s4.935,5.641,8.693,5.641c28.935,0,57.871,0,86.806,0c49.854,0,99.708,0,149.562,0
		c0.86,0,1.722,0,2.582,0v40.828c0,5.258,4.261,9.518,9.518,9.518h50.541c5.256,0,9.518-4.26,9.518-9.518
		c0-5.258-4.261-9.518-9.518-9.518h-41.023v-31.683c62.367-4.871,111.625-57.174,111.625-120.77v-81.98
		c5.723-4.415,10.959-9.427,15.605-14.958h107.751c3.08,0,5.969-1.49,7.754-3.999C512.023,206.687,512.484,203.47,511.475,200.56z
		 M182.141,410.909c-11.58,1.335-23.302,1.331-35.153,1.331c-13.479,0-26.96,0-40.44,0c-14.529,0-29.058,0-43.587,0
		c-9.587,0-19.175,0-28.762,0c-1.112,0-2.225,0-3.336,0L176.074,250.59c15.587-17.35,39.781-24.527,62.599-21.187
		c19.207,2.812,36.262,14.293,45.173,31.771c0.882,1.731,1.676,3.506,2.377,5.317c0.542,1.401,1.03,2.822,1.467,4.261
		c3.515,11.609,3.147,23.613,1.475,35.466c-1.289,9.146-3.718,18.165-7.062,26.769c-6.544,16.836-16.811,32.163-29.84,44.669
		c-13.053,12.529-28.822,22.168-45.954,28.003C198.325,408.376,190.268,409.973,182.141,410.909z M360.092,310.133
		c0,56.302-45.805,102.107-102.107,102.107h-20.081c1.547,0,4.738-2.844,6.057-3.694c2.066-1.331,4.096-2.716,6.09-4.152
		c3.977-2.864,7.807-5.934,11.469-9.191c7.315-6.506,13.959-13.764,19.797-21.623c11.841-15.941,20.293-34.329,24.658-53.702
		c2.862-12.702,4.299-26.095,3.056-39.091c-1.072-11.198-4.438-22.137-10.078-31.871c10.611,0,21.267,0.357,31.833-0.863
		c10.138-1.171,20.045-4.014,29.307-8.297L360.092,310.133L360.092,310.133z M399.382,149.093
		c-0.299,7.669-1.385,15.302-3.523,22.618c-3.219,11.018-8.827,21.295-16.311,29.994c-8.935,10.386-20.542,18.377-33.381,23.132
		c-11.759,4.355-23.592,5.043-35.984,5.043c-8.699,0-18.014,0.986-26.658,0c-10.902-9.823-24.78-16.76-39.337-18.964
		c-13.33-2.019-27.501-1.78-40.587,1.619c-0.628,0.164-1.253,0.34-1.877,0.518c-0.275,0.079-0.553,0.147-0.827,0.228v-73.6
		c0-49.773,40.493-90.266,90.266-90.266h18.696c11.007,0,21.992,2.038,32.252,6.03c9.955,3.873,19.186,9.556,27.148,16.675
		c7.931,7.091,14.589,15.591,19.556,25c5.565,10.54,8.708,21.921,9.93,33.752C399.362,136.872,399.619,142.994,399.382,149.093z
		 M407.393,194.161c0.362,0,1.721-3.555,1.92-3.995c0.635-1.398,1.235-2.812,1.802-4.24c1.133-2.85,2.133-5.755,2.995-8.699
		c1.727-5.905,2.892-11.967,3.501-18.089c0.43-4.324,0.509-8.641,0.509-12.981c0-0.519,0.183-6.949,0-6.981
		c24.84,4.848,53.306,18.865,70.253,54.983C488.373,194.161,407.393,194.161,407.393,194.161z"/>
</g>
<g>
</g>
<g>
</g>
<g>
</g>
<g>
</g>
<g>
</g>
<g>
</g>
<g>
</g>
<g>
</g>
<g>
</g>
<g>
</g>
<g>
</g>
<g>
</g>
<g>
</g>
<g>
</g>
<g>
</g>
</svg>
